<?xml version="1.0" encoding="utf-8"?>
<!-- Generator: Adobe Illustrator 18.0.0, SVG Export Plug-In . SVG Version: 6.00 Build 0)  -->
<svg version="1.2" baseProfile="tiny" id="Layer_1" xmlns="http://www.w3.org/2000/svg" xmlns:xlink="http://www.w3.org/1999/xlink"
	 x="0px" y="0px" viewBox="0 0 364.6 339" xml:space="preserve">
<path fill="#FDBA20" d="M252.1,69c-1.9,1.3-6,7.6-12.3,8.8c-6.3,1.2-14.2,1-16.1,1.5c-1.9,0.5-3.6,1.6-3.6,12.3h0c0,0,0,0,0,0
	c0,0,0,0,0,0c0,0,0,0,0,0c0,0,0,0,0,0c0,0,0,0,0,0c0,0,0,0,0,0h0c0,10.7,1.7,11.8,3.6,12.3c1.9,0.5,9.8,0.2,16.1,1.5
	c6.3,1.2,10.4,7.5,12.3,8.8c1.9,1.3,2.3-0.3,2.3-0.3s0-6.4,0-14.4l-6.9-1.7l-6.9,2.2l-5.5-1.1h5.7l6.7-2.5l6.9,1.4
	c0-0.9,0-1.9,0-2.9c0,0,0.1,0,0.1,0c1.7,0,3.1-1.1,3.5-2.6h2.7v-2.2H258c-0.5-1.5-1.9-2.6-3.5-2.6c0,0-0.1,0-0.1,0
	c0-9.7,0-18.4,0-18.4S254,67.8,252.1,69z"/>
<path fill="#FEC218" d="M252.1,69c-1.9,1.3-6,7.6-12.3,8.8c-6.3,1.2-14.2,1-16.1,1.5c-1.9,0.5-3.6,1.6-3.6,12.3h0c0,0,0,0,0,0
	c0,0,0,0,0,0c0,0,0,0,0,0c0,0,0,0,0,0c0,0,0,0,0,0c0,0,0,0,0,0h0c0,10.7,1.7,11.8,3.6,12.3c1.9,0.5,9.8,0.2,16.1,1.5
	c6.3,1.2,10.4,7.5,12.3,8.8c1.9,1.3,2.3-0.3,2.3-0.3s0-6.4,0-14.4l-6.9-1.7l-6.9,2.2l-5.5-1.1h5.7l6.7-2.5l6.9,1.4
	c0-0.9,0-1.9,0-2.9c0,0,0.1,0,0.1,0c1.7,0,3.1-1.1,3.5-2.6h2.7v-2.2H258c-0.5-1.5-1.9-2.6-3.5-2.6c0,0-0.1,0-0.1,0
	c0-9.7,0-18.4,0-18.4S254,67.8,252.1,69z"/>
<g>
	<path d="M217,115.2c-1.1,0-2.1-0.1-3.2-0.4s-1.9-0.6-2.7-1.2c-0.8-0.6-1.4-1.4-1.9-2.4c-0.5-1-0.7-2.3-0.7-3.8V100
		c0-1.3-0.3-2.2-0.8-2.7c-0.5-0.6-1.3-0.8-2.4-0.8h-1v-6.2h1c1.1,0,1.8-0.3,2.4-0.8c0.5-0.6,0.8-1.5,0.8-2.7V77
		c0-1.5,0.2-2.8,0.7-3.8c0.5-1,1.1-1.8,1.9-2.4c0.8-0.6,1.7-1,2.7-1.2c1-0.2,2.1-0.4,3.2-0.4h2.5v6.2h-1.9c-0.8,0-1.3,0.2-1.5,0.5
		c-0.2,0.3-0.4,0.8-0.4,1.4v10.4c0,1.9-0.5,3.3-1.4,4.1c-0.9,0.8-2.1,1.3-3.6,1.6c1.5,0.3,2.7,0.8,3.6,1.6c0.9,0.8,1.4,2.2,1.4,4.1
		v8.1c0,0.6,0.1,1.1,0.4,1.4c0.2,0.3,0.7,0.5,1.5,0.5h1.9v6.2H217z"/>
</g>
<g>
	<path d="M305.1,109h1.9c0.8,0,1.3-0.2,1.5-0.5c0.2-0.3,0.4-0.8,0.4-1.4v-8.1c0-1.9,0.5-3.3,1.4-4.1c0.9-0.8,2.1-1.3,3.6-1.6
		c-1.5-0.3-2.7-0.8-3.6-1.6c-0.9-0.8-1.4-2.2-1.4-4.1l-0.1-10.4c0-0.6-0.1-1.1-0.4-1.4c-0.2-0.3-0.7-0.5-1.5-0.5h-1.9v-6.2h2.5
		c1.1,0,2.1,0.1,3.2,0.4c1,0.2,1.9,0.6,2.7,1.2s1.4,1.4,1.9,2.4c0.5,1,0.7,2.3,0.7,3.8v9.7c0,1.3,0.3,2.2,0.8,2.7
		c0.5,0.6,1.3,0.8,2.4,0.8h1v6.2h-1c-1.1,0-1.8,0.3-2.4,0.8c-0.5,0.6-0.8,1.5-0.8,2.7v7.4c0,1.5-0.2,2.8-0.7,3.8
		c-0.5,1-1.1,1.8-1.9,2.4s-1.7,1-2.7,1.2s-2.1,0.4-3.2,0.4h-2.5V109z"/>
</g>
<g>
	<path d="M60.3,74.4h6.5v25.7h14.2v5.7H60.3V74.4z"/>
	<path d="M88.7,82.8c-1.1,0-2-0.4-2.8-1.1c-0.8-0.7-1.2-1.7-1.2-2.8c0-1.1,0.4-2.1,1.2-2.8c0.8-0.7,1.7-1.1,2.8-1.1
		c1.1,0,2,0.4,2.8,1.1c0.8,0.7,1.2,1.7,1.2,2.8c0,1.2-0.4,2.1-1.2,2.8C90.7,82.5,89.7,82.8,88.7,82.8z M85.5,86.1h6.2v19.6h-6.2
		V86.1z"/>
	<path d="M109.1,106.1c-1.5,0-2.8-0.3-3.8-0.9c-1-0.6-1.8-1.4-2.4-2.4l0.1,2.9h-6.2V72.5h6.2v16.4c0.6-1,1.5-1.8,2.4-2.3
		c1-0.6,2.2-0.9,3.7-0.9c1.2,0,2.3,0.2,3.4,0.7c1.1,0.5,2,1.2,2.8,2.1c0.8,0.9,1.4,2,1.9,3.2c0.5,1.2,0.7,2.6,0.7,4.1
		s-0.2,2.9-0.7,4.1c-0.5,1.3-1.1,2.3-1.9,3.2c-0.8,0.9-1.8,1.6-2.8,2.1C111.4,105.9,110.3,106.1,109.1,106.1z M107.3,100.7
		c1.3,0,2.4-0.4,3.1-1.2c0.8-0.8,1.1-2,1.1-3.6c0-1.5-0.4-2.6-1.1-3.5c-0.8-0.8-1.8-1.2-3.1-1.2c-1.3,0-2.4,0.4-3.2,1.2
		c-0.8,0.8-1.2,2-1.2,3.5c0,1.6,0.4,2.8,1.2,3.6C104.9,100.3,106,100.7,107.3,100.7z"/>
	<path d="M127.9,97.8c0.3,1,0.9,1.8,1.7,2.4c0.8,0.6,2,0.8,3.4,0.8c1.1,0,2.1-0.2,2.9-0.5c0.8-0.4,1.5-0.7,2-1l3.5,3.8
		c-1,0.8-2.1,1.5-3.4,2.1c-1.3,0.6-3,0.8-5,0.8c-1.8,0-3.3-0.3-4.7-0.8c-1.4-0.5-2.6-1.2-3.6-2.1c-1-0.9-1.8-2-2.3-3.2
		c-0.5-1.3-0.8-2.6-0.8-4.1c0-1.5,0.3-2.8,0.8-4.1c0.6-1.3,1.3-2.3,2.3-3.2c1-0.9,2.1-1.6,3.4-2.1c1.3-0.5,2.7-0.8,4.3-0.8
		c1.8,0,3.3,0.3,4.7,0.9c1.4,0.6,2.5,1.5,3.4,2.6c0.9,1.1,1.5,2.4,2,3.8c0.4,1.5,0.6,3.1,0.4,4.8H127.9z M136.5,94.2
		c-0.2-1.1-0.6-1.9-1.2-2.5c-0.7-0.6-1.6-0.9-2.9-0.9s-2.2,0.3-3,0.9c-0.8,0.6-1.3,1.4-1.6,2.6H136.5z"/>
	<path d="M147,86.1h6.2l-0.1,3.5c0.4-0.8,0.8-1.5,1.2-2c0.4-0.5,0.9-0.9,1.4-1.2s1-0.5,1.5-0.6c0.5-0.1,1-0.2,1.6-0.2
		c0.6,0,1.2,0.1,1.7,0.2c0.5,0.2,0.9,0.3,1.3,0.6l-2,5.7c-0.4-0.2-0.8-0.3-1.2-0.4c-0.4-0.1-0.8-0.2-1.2-0.2c-1.4,0-2.5,0.4-3.2,1.2
		s-1.1,2.2-1.1,4.3v8.7H147V86.1z"/>
	<path d="M173.8,106.2c-1,0-1.9-0.1-2.8-0.4c-0.9-0.3-1.6-0.7-2.2-1.3c-0.6-0.6-1.1-1.4-1.4-2.4c-0.3-1-0.5-2.2-0.5-3.7v-7.1h-2.9
		v-5.2h2.9V75.9h6.2v10.2h5v5.2h-5v7.3c0,1,0.1,1.6,0.4,1.9c0.3,0.3,0.7,0.5,1.2,0.5c0.5,0,1-0.1,1.3-0.3c0.4-0.2,0.6-0.4,0.9-0.5
		l2.3,4.3c-0.5,0.4-1.2,0.8-2,1.2C176.4,106,175.3,106.2,173.8,106.2z"/>
	<path d="M188.5,103.9l-7.8-17.8h6.9l2.8,7.6c0.2,0.5,0.3,1,0.5,1.6c0.2,0.6,0.3,1.1,0.5,1.7c0.2,0.6,0.3,1.2,0.4,1.8
		c0.1-0.6,0.2-1.2,0.4-1.8c0.1-0.5,0.3-1.1,0.4-1.7c0.2-0.6,0.3-1.1,0.5-1.6l3-7.6h6.3l-12.9,29.4h-6.2L188.5,103.9z"/>
</g>
<g>
	<path d="M267.6,108.7c-1.3,0-2.5-0.2-3.5-0.5c-1-0.3-1.9-0.7-2.7-1.3s-1.5-1.2-2-1.9c-0.6-0.7-1.1-1.5-1.4-2.3l5.3-3.2
		c0.5,0.9,1,1.7,1.6,2.3c0.6,0.7,1.4,1,2.5,1c0.5,0,1-0.1,1.4-0.2c0.4-0.1,0.8-0.3,1.1-0.6c0.3-0.3,0.5-0.7,0.7-1.2
		c0.2-0.5,0.3-1.2,0.3-2V76.9h6.5v22c0,1.7-0.2,3.1-0.7,4.3c-0.5,1.2-1.1,2.2-2,3c-0.9,0.8-1.9,1.4-3.1,1.8S269,108.7,267.6,108.7z"
		/>
	<path d="M292.4,108.7c-1.5,0-2.9-0.2-4.1-0.5s-2.3-0.8-3.3-1.4s-1.8-1.3-2.6-2.1c-0.7-0.8-1.3-1.7-1.8-2.6l5.3-3
		c0.7,1.1,1.5,2.1,2.5,2.8c1,0.7,2.2,1.1,3.8,1.1c1.4,0,2.4-0.3,3.2-0.9c0.8-0.6,1.2-1.4,1.2-2.3c0-1.1-0.4-1.9-1.2-2.5
		c-0.8-0.6-2-1.2-3.5-1.8l-1.6-0.7c-1.2-0.5-2.2-1-3.2-1.6c-1-0.6-1.8-1.3-2.4-2s-1.2-1.6-1.6-2.6c-0.4-1-0.6-2.1-0.6-3.5
		c0-1.2,0.2-2.3,0.7-3.4c0.4-1,1.1-2,1.9-2.7c0.8-0.8,1.8-1.4,3-1.8s2.5-0.6,3.9-0.6c2.1,0,3.8,0.4,5.3,1.2c1.5,0.8,2.8,2.1,3.8,4
		l-5,3.2c-0.6-1-1.2-1.7-1.8-2.1c-0.6-0.4-1.4-0.6-2.3-0.6c-1,0-1.7,0.3-2.3,0.8c-0.6,0.5-0.8,1.2-0.8,2c0,1,0.3,1.7,0.9,2.2
		c0.6,0.5,1.6,1.1,3,1.7l1.6,0.7c1.4,0.6,2.6,1.2,3.7,1.8s2,1.3,2.7,2.1c0.7,0.8,1.3,1.7,1.7,2.7c0.4,1,0.6,2.2,0.6,3.5
		c0,1.4-0.3,2.7-0.8,3.8c-0.5,1.1-1.3,2.1-2.2,2.8s-2.1,1.3-3.4,1.7C295.4,108.5,294,108.7,292.4,108.7z"/>
</g>
<path fill="#FDBA20" d="M167.9,190.7c-4.1,2.7-12.8,16.2-26.4,18.9c-13.6,2.7-30.5,2.1-34.5,3.1c-4,1.1-7.6,3.4-7.6,26.4h0
	c0,0,0,0,0,0c0,0,0,0.1,0,0.1c0,0,0,0.1,0,0.1c0,0,0,0.1,0,0.1c0,0,0,0.1,0,0.1c0,0,0,0,0,0h0c0,23,3.6,25.3,7.6,26.4
	c4,1.1,20.9,0.5,34.5,3.1c13.6,2.7,22.3,16.2,26.4,18.9c4.1,2.7,4.8-0.6,4.8-0.6s0-13.8,0.1-30.9l-14.8-3.6l-14.8,4.7l-11.9-2.3
	h12.3l14.4-5.3l14.8,3c0-2,0-4.1,0-6.1c0.1,0,0.2,0,0.2,0c3.6,0,6.6-2.3,7.6-5.6h5.9v-4.8h-5.9c-1-3.2-4-5.6-7.6-5.6
	c-0.1,0-0.2,0-0.2,0c0-20.9-0.1-39.6-0.1-39.6S172.1,188,167.9,190.7z"/>
<path fill="#FEC218" d="M167.9,190.7c-4.1,2.7-12.8,16.2-26.4,18.9c-13.6,2.7-30.5,2.1-34.5,3.1c-4,1.1-7.6,3.4-7.6,26.4h0
	c0,0,0,0,0,0c0,0,0,0.1,0,0.1c0,0,0,0.1,0,0.1c0,0,0,0.1,0,0.1c0,0,0,0.1,0,0.1c0,0,0,0,0,0h0c0,23,3.6,25.3,7.6,26.4
	c4,1.1,20.9,0.5,34.5,3.1c13.6,2.7,22.3,16.2,26.4,18.9c4.1,2.7,4.8-0.6,4.8-0.6s0-13.8,0.1-30.9l-14.8-3.6l-14.8,4.7l-11.9-2.3
	h12.3l14.4-5.3l14.8,3c0-2,0-4.1,0-6.1c0.1,0,0.2,0,0.2,0c3.6,0,6.6-2.3,7.6-5.6h5.9v-4.8h-5.9c-1-3.2-4-5.6-7.6-5.6
	c-0.1,0-0.2,0-0.2,0c0-20.9-0.1-39.6-0.1-39.6S172.1,188,167.9,190.7z"/>
<g>
	<path d="M92.7,289.6c-2.3,0-4.6-0.3-6.8-0.8c-2.2-0.5-4.2-1.4-5.9-2.7c-1.7-1.3-3.1-3-4.1-5.2c-1-2.2-1.6-4.9-1.6-8.1v-15.8
		c0-2.7-0.5-4.7-1.6-5.9c-1.1-1.2-2.8-1.8-5.1-1.8h-2.1v-13.2h2.1c2.3,0,4-0.6,5.1-1.8c1.1-1.2,1.6-3.1,1.6-5.9v-20.9
		c0-3.2,0.5-6,1.6-8.1c1-2.2,2.4-3.9,4.1-5.2c1.7-1.3,3.7-2.2,5.9-2.7c2.2-0.5,4.5-0.8,6.8-0.8h5.4v13.2H94c-1.6,0-2.7,0.3-3.2,1
		c-0.5,0.7-0.8,1.6-0.8,3v22.4c0,4.2-1,7.1-3,8.9c-2,1.7-4.6,2.9-7.8,3.4c3.2,0.5,5.8,1.7,7.8,3.4c2,1.7,3,4.7,3,8.9v17.3
		c0,1.3,0.3,2.3,0.8,3c0.5,0.7,1.6,1,3.2,1h4.1v13.2H92.7z"/>
</g>
<g>
	<path d="M281.5,276.4h4.1c1.6,0,2.7-0.3,3.2-1c0.5-0.7,0.8-1.6,0.8-3v-17.3c0-4.2,1-7.1,3-8.9c2-1.7,4.5-2.9,7.7-3.4
		c-3.1-0.5-5.7-1.7-7.7-3.4c-2-1.7-3-4.7-3-8.9l-0.1-22.4c0-1.3-0.3-2.3-0.8-3c-0.5-0.7-1.6-1-3.2-1h-4.1v-13.2h5.4
		c2.3,0,4.6,0.3,6.8,0.8c2.2,0.5,4.2,1.4,5.9,2.7s3.1,3,4.1,5.2c1,2.2,1.6,4.9,1.6,8.1v20.9c0,2.7,0.5,4.7,1.6,5.9
		c1.1,1.2,2.8,1.8,5.1,1.8h2.1v13.2H312c-2.3,0-4,0.6-5.1,1.8c-1.1,1.2-1.6,3.1-1.6,5.9v15.8c0,3.2-0.5,6-1.6,8.1
		c-1,2.2-2.4,3.9-4.1,5.2s-3.7,2.2-5.9,2.7c-2.2,0.5-4.5,0.8-6.8,0.8h-5.4V276.4z"/>
</g>
<g>
	<path d="M201.1,275.7c-2.8,0-5.3-0.3-7.5-1c-2.2-0.7-4.2-1.6-5.8-2.7c-1.7-1.2-3.1-2.5-4.4-4.1c-1.3-1.5-2.3-3.2-3.1-4.9l11.3-6.8
		c1.1,1.9,2.2,3.6,3.5,5c1.3,1.4,3.1,2.1,5.4,2.1c1.1,0,2.1-0.1,3.1-0.4c0.9-0.3,1.7-0.7,2.3-1.4c0.6-0.7,1.1-1.5,1.5-2.7
		c0.4-1.1,0.5-2.5,0.5-4.2v-47h13.8v47.2c0,3.6-0.5,6.7-1.5,9.3c-1,2.6-2.4,4.8-4.2,6.5c-1.8,1.7-4,3-6.6,3.8
		C206.9,275.2,204.1,275.7,201.1,275.7z"/>
	<path d="M254.4,275.7c-3.2,0-6.2-0.4-8.8-1.1c-2.6-0.7-5-1.7-7.1-2.9c-2.1-1.2-3.9-2.7-5.5-4.5c-1.5-1.7-2.8-3.6-3.8-5.6l11.3-6.5
		c1.5,2.4,3.3,4.4,5.4,6c2.1,1.6,4.8,2.4,8.3,2.4c2.9,0,5.2-0.6,6.9-1.9c1.7-1.3,2.5-2.9,2.5-4.9c0-2.4-0.9-4.2-2.7-5.3
		c-1.8-1.2-4.2-2.5-7.4-3.9L250,246c-2.5-1.1-4.8-2.2-6.8-3.5c-2-1.3-3.8-2.7-5.2-4.4c-1.4-1.6-2.6-3.5-3.4-5.6
		c-0.8-2.1-1.2-4.6-1.2-7.4c0-2.6,0.5-5,1.4-7.2c1-2.2,2.3-4.2,4-5.8c1.7-1.6,3.9-2.9,6.4-3.9c2.5-0.9,5.3-1.4,8.4-1.4
		c4.4,0,8.2,0.8,11.4,2.5c3.2,1.7,5.9,4.6,8.2,8.6l-10.8,6.9c-1.2-2.1-2.5-3.6-3.9-4.5c-1.4-0.9-3.1-1.4-5-1.4c-2,0-3.7,0.6-4.8,1.7
		c-1.2,1.1-1.8,2.5-1.8,4.2c0,2.1,0.7,3.7,2,4.8c1.3,1.1,3.5,2.3,6.5,3.6l3.5,1.5c3,1.3,5.6,2.5,7.9,3.9c2.3,1.3,4.2,2.9,5.7,4.5
		c1.5,1.7,2.7,3.6,3.6,5.7c0.8,2.1,1.2,4.7,1.2,7.5c0,3.1-0.6,5.8-1.7,8.2c-1.2,2.4-2.7,4.4-4.8,6.1c-2,1.6-4.5,2.9-7.3,3.7
		C260.8,275.2,257.7,275.7,254.4,275.7z"/>
</g>
</svg>
